<svg width="400" height="400" viewBox="0 0 400 400" fill="none" xmlns="http://www.w3.org/2000/svg">
<g clip-path="url(#clip0)">
<path d="M200.046 1.44099e-05C170.291 1.44099e-05 142.092 33.1839 124.605 84.0603C66.3768 72.3196 20.0504 77.5377 5.21858 100.53C1.73953 105.83 0.0915527 112.026 0.0915527 118.793H20.5081C20.5081 115.043 21.3321 112.026 22.8885 109.499C30.0298 98.4101 57.2213 93.5997 92.195 97.3502C100.801 98.247 109.865 99.7147 119.112 101.508C114.717 117.489 111.33 134.937 109.133 153.282C92.195 164.289 76.8139 175.703 63.3555 187.199C35.6146 160.62 20.4166 135.671 20.4166 118.712H0C0 141.133 17.9446 170.485 49.073 200.163C18.1277 229.841 0.366218 259.193 0.366218 281.614H20.7828C20.7828 264.737 35.8892 239.706 63.447 213.127C76.9055 224.541 92.195 235.956 109.133 246.8C111.33 265.226 114.717 282.674 119.203 298.655C110.048 300.53 101.167 301.916 92.6528 302.894C57.6791 306.726 30.4875 301.998 23.2548 290.991C21.6068 288.545 20.8743 285.365 20.8743 281.614H0.457771C0.457771 288.463 2.10574 294.66 5.5848 300.041C20.4166 322.951 66.6514 328.088 124.697 316.266C142.275 366.979 170.382 400 200.046 400C229.801 400 258 366.816 275.486 315.94C333.715 327.68 380.041 322.462 394.873 299.47C398.352 294.17 400 287.974 400 281.125C400 258.704 382.055 229.352 350.927 199.674C381.872 169.996 399.634 140.644 399.634 118.223C399.634 111.374 397.986 105.177 394.507 99.7962C379.675 76.8854 333.44 71.7489 275.395 83.5712C257.908 33.0208 229.709 1.44099e-05 200.046 1.44099e-05ZM138.979 106.156C150.79 109.172 162.966 112.923 175.143 117.163C167.819 120.506 160.494 124.011 153.17 127.843C145.846 131.594 138.704 135.589 131.746 139.584C133.669 128.006 136.049 116.837 138.979 106.156ZM236.484 143.498C248.844 149.857 260.563 156.38 271.458 163.147C272.648 175.296 273.289 187.607 273.289 200C273.289 212.311 272.648 224.623 271.55 236.69C260.655 243.457 249.027 250.061 236.759 256.421C224.765 262.617 212.589 268.243 200.32 273.38C188.052 268.324 175.784 262.617 163.79 256.502C151.431 250.143 139.712 243.62 128.817 236.853C127.626 224.704 126.986 212.393 126.986 200C126.986 187.689 127.626 175.377 128.725 163.31C139.62 156.543 151.247 149.939 163.516 143.579C175.509 137.383 187.686 131.757 199.954 126.62C212.222 131.757 224.491 137.383 236.484 143.498ZM224.582 117.163C236.851 112.76 249.119 109.009 261.021 105.911C263.951 116.592 266.423 127.843 268.345 139.503C261.295 135.508 254.063 131.512 246.647 127.762C239.322 124.011 231.907 120.506 224.582 117.163ZM322.271 199.837C313.481 207.419 303.685 215.002 292.973 222.503C293.339 215.165 293.614 207.664 293.614 200.082C293.614 192.417 293.431 184.835 292.973 177.415C303.685 184.753 313.481 192.336 322.271 199.837ZM268.345 260.497C266.423 272.075 264.042 283.245 261.112 293.926C249.302 290.909 237.125 287.159 224.949 282.919C232.273 279.576 239.597 276.07 246.921 272.238C254.246 268.406 261.387 264.492 268.345 260.497ZM77.821 200.245C86.6102 192.662 96.4065 185.08 107.118 177.578C106.752 184.916 106.477 192.417 106.477 200C106.477 207.664 106.661 215.247 107.118 222.666C96.4065 215.328 86.6102 207.746 77.821 200.245ZM131.746 260.579C138.796 264.574 146.029 268.569 153.445 272.32C160.769 276.07 168.093 279.576 175.418 282.919C163.149 287.322 150.881 291.072 138.979 294.17C136.141 283.49 133.669 272.238 131.746 260.579ZM246.372 334.366C232.547 363.229 214.42 381.9 200.046 381.9C185.672 381.9 167.452 363.229 153.719 334.366C150.332 327.354 147.311 319.69 144.472 311.781C162.417 307.134 181.094 301.019 200.229 293.437C219.272 300.938 237.858 306.971 255.711 311.537C252.872 319.609 249.76 327.273 246.372 334.366ZM377.203 290.501C370.062 301.59 342.87 306.4 307.897 302.65C299.29 301.753 290.227 300.285 280.98 298.492C285.374 282.511 288.762 265.063 290.959 246.718C307.897 235.711 323.278 224.297 336.736 212.801C364.477 239.38 379.675 264.329 379.675 281.288C379.583 284.957 378.759 288.055 377.203 290.501ZM307.439 97.1056C342.412 93.2735 369.604 98.0025 376.837 109.009C378.485 111.455 379.217 114.635 379.217 118.386C379.217 135.263 364.111 160.293 336.553 186.873C323.095 175.459 307.805 164.044 290.867 153.2C288.67 134.774 285.283 117.326 280.797 101.345C290.043 99.47 298.924 98.0024 307.439 97.1056ZM246.372 65.7154C249.76 72.7273 252.781 80.3914 255.619 88.3C237.675 92.9474 218.997 99.0624 199.863 106.645C180.819 99.1439 162.234 93.1105 144.381 88.5446C147.219 80.4729 150.332 72.8088 153.719 65.6339C167.544 36.7713 185.672 18.1003 200.046 18.1003C214.42 18.1818 232.639 36.8528 246.372 65.7154Z" fill="#689F63"/>
<path d="M203.488 275.654L203.482 275.657L203.475 275.66C201.347 276.778 198.647 276.783 196.475 275.657L196.47 275.654L126.881 239.918C124.722 238.805 123.5 236.819 123.5 234.775V163.225C123.5 161.181 124.722 159.195 126.881 158.082L196.47 122.346L196.475 122.343C198.647 121.217 201.347 121.222 203.475 122.34L203.487 122.346L273.035 158.082L273.044 158.087C275.261 159.208 276.5 161.197 276.5 163.225V234.775C276.5 236.833 275.317 238.807 273.129 239.913L273.129 239.913L273.121 239.917L203.488 275.654Z" fill="#689F63" stroke="white" stroke-width="3"/>
<path d="M273.387 162L199.5 276.238L125.613 162L273.387 162Z" stroke="white" stroke-width="3"/>
<ellipse cx="125" cy="160" rx="14" ry="12" fill="white"/>
<ellipse cx="274.5" cy="160" rx="13.5" ry="12" fill="white"/>
<ellipse cx="274.5" cy="242" rx="13.5" ry="12" fill="white"/>
<ellipse cx="125" cy="242" rx="14" ry="12" fill="white"/>
<ellipse cx="201.5" cy="277.5" rx="14.5" ry="12.5" fill="white"/>
<ellipse cx="201.5" cy="121.5" rx="14.5" ry="12.5" fill="white"/>
</g>
<defs>
<clipPath id="clip0">
<rect y="400" width="400" height="400" rx="10" transform="rotate(-90 0 400)" fill="white"/>
</clipPath>
</defs>
</svg>
